<?xml version="1.0" standalone="no"?>
<!DOCTYPE svg PUBLIC "-//W3C//DTD SVG 20010904//EN"
 "http://www.w3.org/TR/2001/REC-SVG-20010904/DTD/svg10.dtd">
<svg version="1.0" xmlns="http://www.w3.org/2000/svg"
 width="66.000000pt" height="66.000000pt" viewBox="0 0 66.000000 66.000000"
 preserveAspectRatio="xMidYMid meet">
<metadata>
Created by potrace 1.12, written by Peter Selinger 2001-2015
</metadata>
<g transform="translate(0.000000,66.000000) scale(0.100000,-0.100000)"
fill="#000000" stroke="none">
<path d="M141 630 c-35 -17 -81 -35 -102 -42 l-39 -11 0 -56 0 -56 58 -28 c52
-25 67 -27 157 -25 55 1 110 -2 122 -6 16 -5 28 -1 42 13 10 10 27 21 37 23
29 5 26 21 -18 88 -32 49 -56 72 -93 92 -76 40 -92 41 -164 8z m128 -75 c36
-13 90 -58 91 -77 0 -4 -12 0 -27 8 -16 7 -48 14 -74 14 -62 0 -85 23 -53 54
19 19 13 19 63 1z"/>
<path d="M418 423 c-10 -2 -18 -13 -18 -24 0 -18 -5 -19 -50 -13 -27 4 -50 4
-50 1 0 -18 25 -57 38 -59 13 -2 15 -14 13 -54 -2 -36 2 -54 13 -63 27 -23 46
4 46 64 0 44 3 54 19 58 30 7 42 101 13 96 -4 -1 -15 -3 -24 -6z"/>
<path d="M451 183 c-19 -8 -62 -18 -94 -21 -70 -8 -96 -32 -62 -58 15 -12 39
-15 104 -12 71 4 81 3 65 -9 -11 -8 -47 -13 -100 -13 -91 0 -108 10 -109 62 0
26 -6 33 -39 46 -36 14 -40 14 -52 -2 -7 -10 -17 -15 -22 -12 -5 3 -18 -1 -28
-9 -32 -24 -6 -44 118 -95 157 -65 161 -65 243 -34 50 18 80 24 106 20 36 -6
36 -6 58 50 11 31 21 57 21 59 0 2 -25 13 -55 24 -65 24 -106 25 -154 4z"/>
</g>
</svg>
