<?xml version="1.0" standalone="no"?>
<!DOCTYPE svg PUBLIC "-//W3C//DTD SVG 20010904//EN"
 "http://www.w3.org/TR/2001/REC-SVG-20010904/DTD/svg10.dtd">
<svg version="1.0" xmlns="http://www.w3.org/2000/svg"
 width="63.000000pt" height="66.000000pt" viewBox="0 0 63.000000 66.000000"
 preserveAspectRatio="xMidYMid meet">
<metadata>
Created by potrace 1.12, written by Peter Selinger 2001-2015
</metadata>
<g transform="translate(0.000000,66.000000) scale(0.100000,-0.100000)"
fill="#000000" stroke="none">
<path d="M205 646 c-129 -40 -199 -133 -198 -264 0 -55 7 -75 47 -156 39 -78
47 -102 49 -157 l2 -64 143 -3 142 -3 10 25 c10 29 30 41 81 50 54 10 72 36
77 112 4 59 7 66 32 79 44 23 44 41 0 114 -22 37 -40 73 -40 79 0 32 -54 115
-92 142 -67 49 -177 69 -253 46z m136 -138 c1 -7 1 -16 0 -20 0 -4 8 -12 20
-18 15 -8 24 -8 34 0 18 15 31 7 50 -30 14 -27 14 -30 -5 -40 -26 -14 -25 -38
1 -66 19 -21 20 -24 5 -53 -14 -26 -21 -30 -53 -28 -32 2 -37 -1 -43 -23 -5
-21 -12 -25 -48 -28 -30 -2 -42 1 -42 11 0 7 -6 22 -14 32 -12 16 -18 17 -39
8 -24 -11 -27 -9 -46 22 -19 33 -19 34 0 51 25 23 24 49 -2 68 -20 13 -21 18
-9 46 16 38 25 44 49 30 27 -14 51 -2 51 26 0 22 4 24 45 24 29 0 45 -5 46
-12z"/>
<path d="M255 405 c-30 -29 -32 -55 -7 -86 38 -45 122 -16 122 43 0 25 -44 68
-70 68 -11 0 -32 -11 -45 -25z"/>
</g>
</svg>
