<?xml version="1.0" standalone="no"?>
<!DOCTYPE svg PUBLIC "-//W3C//DTD SVG 20010904//EN"
 "http://www.w3.org/TR/2001/REC-SVG-20010904/DTD/svg10.dtd">
<svg version="1.0" xmlns="http://www.w3.org/2000/svg"
 width="49.000000pt" height="69.000000pt" viewBox="0 0 49.000000 69.000000"
 preserveAspectRatio="xMidYMid meet">
<metadata>
Created by potrace 1.12, written by Peter Selinger 2001-2015
</metadata>
<g transform="translate(0.000000,69.000000) scale(0.100000,-0.100000)"
fill="#000000" stroke="none">
<path d="M103 665 c-39 -17 -53 -29 -53 -44 0 -12 3 -21 8 -22 4 0 18 -3 32
-5 31 -6 80 14 80 32 0 8 5 14 11 14 16 0 6 45 -11 47 -8 1 -39 -9 -67 -22z"/>
<path d="M140 571 c-25 -10 -47 -26 -48 -36 -5 -23 50 -155 64 -155 6 0 29 7
50 16 22 9 49 20 61 25 l22 8 -33 78 c-37 88 -46 93 -116 64z"/>
<path d="M38 473 c-26 -30 -38 -60 -38 -94 0 -35 21 -101 30 -96 3 2 24 12 47
23 31 14 41 23 36 34 -3 8 -7 29 -8 45 -2 36 -31 105 -43 105 -5 0 -16 -8 -24
-17z"/>
<path d="M223 373 c-35 -14 -63 -29 -63 -34 0 -5 13 -15 29 -24 23 -11 36 -12
60 -4 32 11 67 61 56 79 -8 13 -11 13 -82 -17z"/>
<path d="M291 273 c-58 -25 -86 -33 -89 -25 -5 17 -56 42 -86 42 -33 0 -83
-44 -91 -80 -4 -18 0 -40 9 -59 43 -82 161 -64 184 29 8 33 14 38 98 72 83 34
104 50 72 55 -7 1 -51 -14 -97 -34z"/>
<path d="M303 152 c-117 -44 -115 -52 19 -52 98 0 117 3 122 16 9 24 -20 64
-47 63 -12 0 -55 -12 -94 -27z"/>
<path d="M12 58 c-7 -7 -12 -22 -12 -35 l0 -23 245 0 245 0 0 23 c0 13 -5 28
-12 35 -17 17 -449 17 -466 0z"/>
</g>
</svg>
