<?xml version="1.0" standalone="no"?>
<!DOCTYPE svg PUBLIC "-//W3C//DTD SVG 20010904//EN"
 "http://www.w3.org/TR/2001/REC-SVG-20010904/DTD/svg10.dtd">
<svg version="1.0" xmlns="http://www.w3.org/2000/svg"
 width="66.000000pt" height="65.000000pt" viewBox="0 0 66.000000 65.000000"
 preserveAspectRatio="xMidYMid meet">
<metadata>
Created by potrace 1.12, written by Peter Selinger 2001-2015
</metadata>
<g transform="translate(0.000000,65.000000) scale(0.100000,-0.100000)"
fill="#000000" stroke="none">
<path d="M564 548 c-48 -57 -88 -104 -89 -105 -1 -2 -40 8 -88 22 l-87 25 -42
-26 c-24 -15 -53 -36 -66 -47 -12 -11 -22 -17 -22 -14 0 4 -10 -3 -21 -14 -22
-22 -29 -22 -116 -3 l-33 7 0 -197 0 -196 330 0 330 0 0 325 c0 179 -2 325 -4
325 -2 0 -43 -46 -92 -102z m-88 -278 l61 -28 32 31 31 32 0 -123 0 -122 -270
0 -270 0 0 64 0 64 90 -23 90 -23 37 52 c93 127 88 125 199 76z"/>
</g>
</svg>
